<svg width="615" height="723" viewBox="0 0 615 723" fill="none" xmlns="http://www.w3.org/2000/svg">
<path fill-rule="evenodd" clip-rule="evenodd" d="M281.167 42.066C277.433 17.4 271.3 6.9996 257.433 1.7994C255.3 0.999598 249.967 0.332605 245.433 0.466394C229.567 0.732996 210.9 10.5992 194.633 27.5328C188.233 34.1998 171.167 55.4 171.167 56.733C171.167 57.1334 168.767 60.9996 165.833 65.4C155.967 80.066 134.5 124.733 125.033 149.933C123.967 152.733 122.233 157.4 121.167 160.333C115.967 174.066 112.5 184.066 111.167 189C110.945 189.71 110.472 191.29 109.833 193.446L108.011 199.598C106.982 203.078 105.808 207.049 104.633 211C96.3667 238.2 91.4333 257.799 85.1665 287.667C83.3 296.066 83.1667 299.4 84.3667 303.667C86.5 311.533 90.3667 317.133 96.6333 321.266C101.567 324.599 103.567 325 112.367 325C123.567 324.866 130.1 322.066 135.033 315.133C138.1 311 143.167 297 143.167 293C143.167 291.533 143.967 286.066 145.033 281C146.1 275.799 147.967 266.599 149.167 260.333C150.367 254.066 152.233 245.933 153.3 242.2C154.367 238.466 155.167 234.333 155.167 233C155.167 231.799 156.1 227.933 157.167 224.466C158.233 221.133 160.1 214.466 161.3 209.667C162.5 204.866 164.233 198.599 165.167 195.667C166.1 192.733 167.967 186.733 169.167 182.333C170.5 177.933 172.367 172.333 173.3 169.933C174.367 167.533 175.167 164.733 175.167 163.667C175.167 162.599 175.967 159.799 177.033 157.4C178.1 155 179.833 150.466 181.033 147.266C186.767 132.066 187.567 130.066 193.033 117.266C197.567 106.733 211.567 79.5328 215.7 73.2662C223.3 61.7994 228.9 56.3326 232.767 56.3326C236.767 56.3326 237.833 58.3326 237.833 66.5992C237.833 75.7994 235.167 91.5328 225.033 141.667C221.737 157.72 220.052 166.568 218.491 174.767L217.726 178.778L217.3 181C216.729 184.141 216.005 188.009 215.332 191.6C214.749 194.715 214.205 197.623 213.833 199.667C213.033 204.066 211.7 212.2 211.167 217.667C210.5 223.133 209.3 231.533 208.367 236.333C207.567 241.133 206.767 258.466 206.633 275C206.5 303.266 206.633 305.266 209.3 310.333C214.233 319.4 216.9 321 227.033 321C237.3 320.866 243.7 317.533 253.7 307.133C261.167 299.266 277.967 277.133 284.233 266.867C285.06 265.504 285.95 264.063 286.821 262.665C287.491 261.588 288.15 260.538 288.76 259.566L288.904 259.337L290.109 257.413C290.663 256.527 291.12 255.788 291.433 255.266C292.767 253.266 294.367 250.466 295.167 249L295.494 248.395L295.742 247.934C296.603 246.331 297.836 244.035 298.9 242.333C300.233 240.066 303.967 233.533 307.167 227.667C308.03 226.085 308.931 224.425 309.817 222.796C312.215 218.38 314.495 214.183 315.567 212.333C317.033 209.799 321.567 201.4 325.567 193.667C327.171 190.665 328.936 187.342 330.635 184.142L330.662 184.092C332.502 180.627 334.265 177.308 335.661 174.703C336.291 173.529 336.845 172.5 337.3 171.667C339.7 167.266 343.033 161 344.633 157.667C346.367 154.333 350.233 147.266 353.433 141.933C356.633 136.466 359.167 131.799 359.167 131.533C359.167 131.133 360.233 129.266 361.7 127.266C362.032 126.767 362.596 125.913 363.332 124.795L365.693 121.208C367.801 118.004 370.435 113.998 373.033 110.066C377.967 102.599 385.567 92.8658 389.967 88.4664C396.633 81.6666 398.767 80.3326 402.5 80.3326C412.9 80.3326 413.567 88.3326 405.033 111.266C400.1 124.599 398.767 127.799 393.033 141.266C387.967 153.266 381.833 166.867 375.567 180.333C367.033 198.599 355.433 223.667 353.033 229.266C350.5 235 347.567 241.799 345.167 247.667L344.991 248.085C343.917 250.635 342.31 254.454 341.3 256.599C339.167 261.667 335.7 270.866 333.167 277.667C332.938 278.289 332.668 279.031 332.375 279.84C332.072 280.674 331.743 281.581 331.406 282.5L330.877 283.933C330.377 285.275 329.878 286.581 329.433 287.667C321.3 309.667 318.767 322.333 318.633 340.599L318.5 357.4L322.633 362.466C328.367 369.667 335.833 371.933 346.5 369.799C355.433 367.933 368.1 361.533 379.033 353.4C387.3 347.133 412.233 322.599 423.967 309C435.3 296.066 452.5 275.533 456.5 270.466C462.633 262.466 484.1 238.2 493.167 228.867C503.3 218.466 512.9 214.866 515.033 220.733C517.7 227.533 511.833 242.333 498.1 263.667C497.9 264.034 497.657 264.461 497.397 264.916L497.162 265.323L497.14 265.361C496.796 265.96 496.434 266.59 496.1 267.193C495.917 267.524 495.743 267.846 495.585 268.15C495.426 268.455 495.284 268.742 495.167 269C494.367 270.466 490.9 276.2 487.3 281.667C483.946 286.578 479.302 293.854 476.169 298.763L473.408 303.089C470.32 307.93 466.149 314.471 463.167 319C447.167 343.533 431.7 369.933 423.167 387L417.567 398.2C416.767 399.667 415.7 402.333 415.167 404.2C414.5 406.066 412.5 411.799 410.633 416.867C406.1 428.733 405.833 444.2 409.833 450.333C416.1 459.799 429.7 462.599 445.167 457.799C464.5 451.667 483.967 438.466 527.167 402.733C561.567 374.066 571.167 370.733 565.167 389.533C558.5 410.733 546.1 436.733 530.633 462.066C529.224 464.436 527.754 466.868 526.532 468.887C525.767 470.152 525.1 471.255 524.606 472.081C524.247 472.682 523.979 473.137 523.833 473.4C514.233 489.132 485.567 527.4 472.233 542.066C470.709 543.739 469.101 545.516 467.521 547.27L465.015 550.054L461.941 553.479C460.146 555.48 458.645 557.155 457.7 558.2C444.233 573.799 403.033 607.933 381.833 621.266C347.967 642.466 316.233 654.333 272.767 662.333C257.433 665.133 213.7 665.133 195.833 662.2C170.1 658.2 155.167 653.533 135.167 643.667C98.0999 625.133 73.3 595.4 61.7 555.533C57.5667 541.266 57.1667 507.132 61.0332 493.667C68.8999 465.799 79.8333 448.733 100.233 432.733C117.7 418.866 151.433 408.333 178.233 408.333C208.367 408.333 241.167 423.799 257.3 445.799C263.567 454.466 267.567 461.667 266.5 462.733C266.1 463.132 261.7 462.066 256.767 460.333C215.7 446.2 166.633 451.533 139.833 473C133.567 478.066 124.367 490.066 121.567 497C117.167 507.667 116.1 519 118.367 530.866C125.567 569.667 163.433 596.333 211.3 596.333C246.367 596.333 278.9 581.667 297.167 557.266C300.9 552.466 304.767 548.466 305.833 548.333C306.9 548.333 310.5 551.4 313.567 555C322.367 565.266 328.1 568.333 338.1 568.333C345.3 568.333 347.3 567.799 352.5 564.2C360.633 558.733 363.167 553.933 363.167 544.599C363.167 538.2 362.5 535.933 358.633 530.333C354.233 523.667 342.5 511.667 333.833 504.733C323.833 496.733 320.233 492.466 320.9 489.4C321.967 485.533 319.433 466.599 316.9 458.333C314.1 449.533 308.233 436.2 303.967 429C293.167 410.466 273.167 390.466 257.033 381.667C255.566 380.898 253.952 380.019 252.595 379.28L251.367 378.612C250.697 378.25 250.159 377.962 249.833 377.799C247.3 376.333 239.967 373.133 233.167 370.466C201.7 358.333 159.433 356.867 122.5 366.599C113.033 369 100.1 373.266 96.7666 374.867C96.2539 375.094 95.3271 375.542 94.2051 376.083C93.457 376.444 92.6221 376.846 91.7649 377.254C91.2722 377.488 90.7725 377.724 90.2776 377.955C89.9026 378.129 89.5305 378.301 89.1665 378.466C57.9666 393.133 31.9666 418.599 17.8333 448.333C16.2334 451.667 14.3667 455.4 13.7 456.733C6.6333 469.799 0.5 502.599 0.5 526.333C0.633301 545 4.3667 569.533 9.1665 583C22.8999 621.266 41.4333 646.733 72.5 670.333C93.1667 685.933 117.567 698.733 140.5 705.933C145.3 707.4 151.3 709.4 153.833 710.333C166.367 714.866 194.767 719.799 219.567 721.799C249.433 724.066 283.7 721.266 311.833 714.2C328.1 710.066 347.3 703.667 359.833 698.333C365.033 696.066 399.033 679.266 402.5 677.266C415.567 669.667 443.433 649.799 454.367 640.333C497.3 603.533 533.7 560.466 560.9 514.333C562.069 512.355 563.238 510.392 564.299 508.618C565.203 507.106 566.03 505.732 566.712 504.602C567.604 503.126 568.25 502.067 568.5 501.667C571.967 496.066 591.167 456.333 591.167 454.733C591.167 453.667 591.7 452.333 592.367 451.667C593.7 450.2 596.233 443.667 600.767 429.667C602.233 424.866 604.233 418.867 605.167 416.333C607.567 409.667 610.767 395.133 613.3 379.133C617.3 354.599 613.967 337.667 603.167 326.867C595.033 318.867 586.9 316.599 574.767 319C567.433 320.599 552.5 326.733 545.167 331.4C540.633 334.2 521.3 348.733 519.033 350.867C517.833 352.066 511.967 357.533 505.833 363C499.7 368.466 494.1 373.667 493.3 374.466C492.5 375.266 490.233 376.866 488.233 378.2C482.367 382.066 483.433 378.2 491.967 365.533C513.167 334.066 540.233 285.533 550.5 261C562.233 232.733 563.567 226.733 563.567 207.667C563.567 193.533 563.3 191 560.633 185.933C551.967 169.933 532.9 162.333 512.9 167.133C503.3 169.533 489.7 175.667 482.233 181.133C479.967 182.866 477.567 184.333 477.167 184.333C476.633 184.333 471.7 188.2 465.967 192.867C451.433 205.133 427.433 230.066 409.967 251C401.7 260.866 393.7 269.933 392.233 271C389.7 272.733 389.567 272.733 390.367 270.066C390.9 268.466 392.767 264.599 394.5 261.4C408.767 235.133 432.233 184.599 441.167 160.333C442.068 157.862 442.848 155.727 443.533 153.854C445.991 147.133 447.22 143.774 448.367 140.333C457.567 113.667 461.7 86.8668 459.433 67.9332C457.3 49.7994 450.367 38.733 436.367 31.5328C429.7 28.066 428.1 27.7994 413.833 27.7994C399.167 27.7994 398.1 27.9332 389.3 32.3326C384.1 34.733 377.3 38.5992 373.967 40.8668C365.3 46.5992 345.167 66.9996 335.7 79.6666C327.7 90.1998 312.5 112.599 310.767 116.333C310.233 117.4 308.633 120.066 307.167 122.333C305.7 124.466 304.1 127.266 303.567 128.333C303.033 129.4 300.9 133.266 298.767 137C296.633 140.599 291.567 149.933 287.433 157.667C285.129 162.123 282.071 167.951 279.231 173.366C277.141 177.348 275.169 181.108 273.7 183.933C270.1 190.733 267.167 197.133 267.167 198.333C267.167 199.933 263.433 203 261.433 203C261.033 203 261.3 201.4 261.833 199.266C262.9 195.799 264.9 187 269.033 167C270.1 161.533 271.967 152.733 273.167 147.533C274.233 142.2 275.167 136.599 275.167 135C275.167 133.266 275.967 127.4 277.033 121.799C279.433 109.133 281.7 88.8658 282.767 71.2662C283.3 61.6666 282.9 53.5328 281.167 42.066ZM179.333 514.333C184 509.399 191.866 505.533 201.333 503.666C220 499.799 237.2 502.066 263.866 511.932C273.6 515.533 274.267 517.533 268 525.266C260.4 534.599 259.2 535.666 253.067 539.399C242.533 546.066 233.333 548.333 218 548.333C200.8 548.333 190.267 545.266 181.733 537.799C176.4 533 176.133 532.333 176.133 525.266C176 519.132 176.533 517.266 179.333 514.333Z" fill="white"/>
</svg>
